<?xml version="1.0" encoding="UTF-8"?><svg id="Layer_2" xmlns="http://www.w3.org/2000/svg" viewBox="0 0 1978.81 1101.25"><defs><style>.cls-1{letter-spacing:-.02em;}.cls-2,.cls-3{fill:#ffff17;}.cls-4{letter-spacing:-.02em;}.cls-3{font-family:CopalStd-Solid, 'Copal Std';font-size:105.6px;}</style></defs><g id="_레이어_1"><g><path class="cls-2" d="M42.71,7.92c4.42,0,9.82,.53,13.25,.53,7.85,0,11.78,2.64,18.16,7.39,6.38,4.75,8.93,8.45,8.74,16.37-.39,16.89,1.08,24.29,.69,33.26-.29,6.34-1.57,10.98-8.44,15.21-7.66,4.65-11.29,7.29-20.12,7.29-3.44,0-10.31-.53-17.67-.21-3.44,.11-8.25,.32-12.96,.32s-9.33-.11-12.57-.42c-6.38-.63-8.25-4.22-8.15-9.71,.1-3.91-.39-27.45-.59-33.89-.2-6.44,.49-16.37,.59-23.86,.1-7.5,2.75-12.04,8.64-11.72,4.91,.32,25.53-.53,30.43-.53Zm-2.85,44.88c0,2.53,2.16,2.53,3.73,2.53,2.26,0,6.18-2.53,6.18-4.65,0-1.06-.29-1.58-.29-2.11,0-3.17-3.34-4.75-5.79-4.75-3.44,0-4.12,1.06-4.12,3.7,0,1.58,.29,3.7,.29,5.28Z"/><path class="cls-2" d="M41.72,134.64c5.4-.21,25.53,.63,31.91,.53,6.87-.11,10.8,5.81,10.8,20.06,0,2.64,.49,3.7,.49,5.81,0,1.58-.79,2.85-1.96,3.17-3.44,.84-16.2,5.39-19.14,6.34-3.44,1.06-8.34,3.7-11.29,3.7-1.47,0-2.36-.53-2.36-1.69,0-.84-1.18-2.01-2.06-2.01-2.45,0-5.2,.32-6.38,.32-1.47,0-2.26,1.9-2.26,6.02,0,4.75,1.28,5.28,3.24,5.28,1.47,0,3.44,.11,4.91,.11s2.55-1.16,2.55-2.22c0-1.37,.88-2.11,2.36-2.11,3.93,0,13.75,2.64,17.18,3.17,2.55,.42,9.82,1.9,12.27,2.11,2.45,.21,3.44,1.58,3.44,4.22,0,1.58-.49,3.17-.49,7.39,0,13.2-.98,19.64-7.85,19.53-4.91-.11-27.49,.32-34.36,.42-5.4,.11-24.05-.42-30.43-.42-5.5,0-8.93-5.28-8.93-9.5,0-4.75-.49-24.81-.49-30.09s.79-20.59,.79-26.93c0-6.86,3.24-12.67,8.15-12.67s25.53-.32,29.94-.53Z"/><path class="cls-2" d="M41.72,261.35c5.4-.21,25.53,.63,31.91,.53,6.87-.11,10.8,5.81,10.8,20.06,0,2.64,.49,3.7,.49,5.81,0,1.58-.79,2.85-1.96,3.17-3.44,.84-16.2,5.39-19.14,6.34-3.44,1.06-8.34,3.7-11.29,3.7-1.47,0-2.36-.53-2.36-1.69,0-.84-1.18-2.01-2.06-2.01-2.45,0-5.2,.32-6.38,.32-1.47,0-2.26,1.9-2.26,6.02,0,4.75,1.28,5.28,3.24,5.28,1.47,0,3.44,.11,4.91,.11s2.55-1.16,2.55-2.22c0-1.37,.88-2.11,2.36-2.11,3.93,0,13.75,2.64,17.18,3.17,2.55,.42,9.82,1.9,12.27,2.11,2.45,.21,3.44,1.58,3.44,4.22,0,1.58-.49,3.17-.49,7.39,0,13.2-.98,19.64-7.85,19.53-4.91-.11-27.49,.32-34.36,.42-5.4,.11-24.05-.42-30.43-.42-5.5,0-8.93-5.28-8.93-9.5,0-4.75-.49-24.81-.49-30.09s.79-20.59,.79-26.93c0-6.86,3.24-12.67,8.15-12.67s25.53-.32,29.94-.53Z"/></g><g><path class="cls-2" d="M45.52,398.35c4.42,0,9.82,.53,13.25,.53,7.85,0,11.78,2.64,18.16,7.39,6.38,4.75,8.93,8.45,8.74,16.37-.39,16.89,1.08,24.29,.69,33.26-.29,6.34-1.57,10.98-8.44,15.21-7.66,4.65-11.29,7.29-20.12,7.29-3.44,0-10.31-.53-17.67-.21-3.44,.11-8.25,.32-12.96,.32s-9.33-.11-12.57-.42c-6.38-.63-8.25-4.22-8.15-9.71,.1-3.91-.39-27.45-.59-33.89-.2-6.44,.49-16.37,.59-23.86,.1-7.5,2.75-12.04,8.64-11.72,4.91,.32,25.53-.53,30.43-.53Zm-2.85,44.88c0,2.53,2.16,2.53,3.73,2.53,2.26,0,6.18-2.53,6.18-4.65,0-1.06-.29-1.58-.29-2.11,0-3.17-3.34-4.75-5.79-4.75-3.44,0-4.12,1.06-4.12,3.7,0,1.58,.29,3.7,.29,5.28Z"/><path class="cls-2" d="M44.54,525.07c5.4-.21,25.53,.63,31.91,.53,6.87-.11,10.8,5.81,10.8,20.06,0,2.64,.49,3.7,.49,5.81,0,1.58-.79,2.85-1.96,3.17-3.44,.84-16.2,5.38-19.14,6.33-3.44,1.06-8.34,3.7-11.29,3.7-1.47,0-2.36-.53-2.36-1.69,0-.84-1.18-2.01-2.06-2.01-2.45,0-5.2,.32-6.38,.32-1.47,0-2.26,1.9-2.26,6.02,0,4.75,1.28,5.28,3.24,5.28,1.47,0,3.44,.11,4.91,.11s2.55-1.16,2.55-2.22c0-1.37,.88-2.11,2.36-2.11,3.93,0,13.75,2.64,17.18,3.17,2.55,.42,9.82,1.9,12.27,2.11,2.45,.21,3.44,1.58,3.44,4.22,0,1.58-.49,3.17-.49,7.39,0,13.2-.98,19.64-7.85,19.53-4.91-.11-27.49,.32-34.36,.42-5.4,.11-24.05-.42-30.43-.42-5.5,0-8.93-5.28-8.93-9.5,0-4.75-.49-24.81-.49-30.09s.79-20.59,.79-26.92c0-6.86,3.24-12.67,8.15-12.67s25.53-.32,29.94-.53Z"/><path class="cls-2" d="M44.54,651.78c5.4-.21,25.53,.63,31.91,.53,6.87-.11,10.8,5.81,10.8,20.06,0,2.64,.49,3.7,.49,5.81,0,1.58-.79,2.85-1.96,3.17-3.44,.84-16.2,5.39-19.14,6.34-3.44,1.06-8.34,3.7-11.29,3.7-1.47,0-2.36-.53-2.36-1.69,0-.84-1.18-2.01-2.06-2.01-2.45,0-5.2,.32-6.38,.32-1.47,0-2.26,1.9-2.26,6.02,0,4.75,1.28,5.28,3.24,5.28,1.47,0,3.44,.11,4.91,.11s2.55-1.16,2.55-2.22c0-1.37,.88-2.11,2.36-2.11,3.93,0,13.75,2.64,17.18,3.17,2.55,.42,9.82,1.9,12.27,2.11,2.45,.21,3.44,1.58,3.44,4.22,0,1.58-.49,3.17-.49,7.39,0,13.2-.98,19.64-7.85,19.53-4.91-.11-27.49,.32-34.36,.42-5.4,.11-24.05-.42-30.43-.42-5.5,0-8.93-5.28-8.93-9.5,0-4.75-.49-24.81-.49-30.09s.79-20.59,.79-26.93c0-6.86,3.24-12.67,8.15-12.67s25.53-.32,29.94-.53Z"/></g><g><path class="cls-2" d="M51.26,754.04c4.42,0,9.82,.53,13.25,.53,7.85,0,11.78,2.64,18.16,7.39,6.38,4.75,8.93,8.45,8.74,16.37-.39,16.89,1.08,24.29,.69,33.26-.29,6.34-1.57,10.98-8.44,15.21-7.66,4.65-11.29,7.29-20.12,7.29-3.44,0-10.31-.53-17.67-.21-3.44,.11-8.25,.32-12.96,.32s-9.33-.11-12.57-.42c-6.38-.63-8.25-4.22-8.15-9.71,.1-3.91-.39-27.45-.59-33.89-.2-6.44,.49-16.37,.59-23.86,.1-7.5,2.75-12.04,8.64-11.72,4.91,.32,25.53-.53,30.43-.53Zm-2.85,44.88c0,2.53,2.16,2.53,3.73,2.53,2.26,0,6.18-2.53,6.18-4.65,0-1.06-.29-1.58-.29-2.11,0-3.17-3.34-4.75-5.79-4.75-3.44,0-4.12,1.06-4.12,3.7,0,1.58,.29,3.7,.29,5.28Z"/><path class="cls-2" d="M50.28,880.76c5.4-.21,25.53,.63,31.91,.53,6.87-.11,10.8,5.81,10.8,20.06,0,2.64,.49,3.7,.49,5.81,0,1.58-.79,2.85-1.96,3.17-3.44,.84-16.2,5.39-19.14,6.34-3.44,1.06-8.34,3.7-11.29,3.7-1.47,0-2.36-.53-2.36-1.69,0-.84-1.18-2.01-2.06-2.01-2.45,0-5.2,.32-6.38,.32-1.47,0-2.26,1.9-2.26,6.02,0,4.75,1.28,5.28,3.24,5.28,1.47,0,3.44,.11,4.91,.11s2.55-1.16,2.55-2.22c0-1.37,.88-2.11,2.36-2.11,3.93,0,13.75,2.64,17.18,3.17,2.55,.42,9.82,1.9,12.27,2.11,2.45,.21,3.44,1.58,3.44,4.22,0,1.58-.49,3.17-.49,7.39,0,13.2-.98,19.64-7.85,19.53-4.91-.11-27.49,.32-34.36,.42-5.4,.11-24.05-.42-30.43-.42-5.5,0-8.93-5.28-8.93-9.5,0-4.75-.49-24.81-.49-30.09s.79-20.59,.79-26.93c0-6.86,3.24-12.67,8.15-12.67s25.53-.32,29.94-.53Z"/><path class="cls-2" d="M50.28,1007.47c5.4-.21,25.53,.63,31.91,.53,6.87-.11,10.8,5.81,10.8,20.06,0,2.64,.49,3.7,.49,5.81,0,1.58-.79,2.85-1.96,3.17-3.44,.84-16.2,5.39-19.14,6.34-3.44,1.06-8.34,3.7-11.29,3.7-1.47,0-2.36-.53-2.36-1.69,0-.84-1.18-2.01-2.06-2.01-2.45,0-5.2,.32-6.38,.32-1.47,0-2.26,1.9-2.26,6.02,0,4.75,1.28,5.28,3.24,5.28,1.47,0,3.44,.11,4.91,.11s2.55-1.16,2.55-2.22c0-1.37,.88-2.11,2.36-2.11,3.93,0,13.75,2.64,17.18,3.17,2.55,.42,9.82,1.9,12.27,2.11,2.45,.21,3.44,1.58,3.44,4.22,0,1.58-.49,3.17-.49,7.39,0,13.2-.98,19.64-7.85,19.53-4.91-.11-27.49,.32-34.36,.42-5.4,.11-24.05-.42-30.43-.42-5.5,0-8.93-5.28-8.93-9.5,0-4.75-.49-24.81-.49-30.09s.79-20.59,.79-26.93c0-6.86,3.24-12.67,8.15-12.67s25.53-.32,29.94-.53Z"/></g><text class="cls-3" transform="translate(90.92 88.39) scale(.93 1)"><tspan x="0" y="0">s </tspan><tspan class="cls-4" x="60.19" y="0" xml:space="preserve"> t</tspan><tspan x="118.27" y="0" xml:space="preserve">  o  r </tspan><tspan class="cls-1" x="341.07" y="0" xml:space="preserve"> a</tspan><tspan x="417.1" y="0" xml:space="preserve">  g  e</tspan></text><text class="cls-3" transform="translate(700.7 88.83) scale(.93 1)"><tspan x="0" y="0">s </tspan><tspan class="cls-4" x="60.19" y="0" xml:space="preserve"> t</tspan><tspan x="118.27" y="0" xml:space="preserve">  o  r </tspan><tspan class="cls-1" x="341.07" y="0" xml:space="preserve"> a</tspan><tspan x="417.1" y="0" xml:space="preserve">  g  e</tspan></text><text class="cls-3" transform="translate(1302.7 88.83) scale(.93 1)"><tspan x="0" y="0">s </tspan><tspan class="cls-4" x="60.19" y="0" xml:space="preserve"> t</tspan><tspan x="118.27" y="0" xml:space="preserve">  o  r </tspan><tspan class="cls-1" x="341.07" y="0" xml:space="preserve"> a</tspan><tspan x="417.1" y="0" xml:space="preserve">  g  e</tspan></text><text class="cls-3" transform="translate(99.81 1087.61) scale(.93 1)"><tspan x="0" y="0">s </tspan><tspan class="cls-4" x="60.19" y="0" xml:space="preserve"> t</tspan><tspan x="118.27" y="0" xml:space="preserve">  o  r </tspan><tspan class="cls-1" x="341.07" y="0" xml:space="preserve"> a</tspan><tspan x="417.1" y="0" xml:space="preserve">  g  e</tspan></text><text class="cls-3" transform="translate(709.6 1088.05) scale(.93 1)"><tspan x="0" y="0">s </tspan><tspan class="cls-4" x="60.19" y="0" xml:space="preserve"> t</tspan><tspan x="118.27" y="0" xml:space="preserve">  o  r </tspan><tspan class="cls-1" x="341.07" y="0" xml:space="preserve"> a</tspan><tspan x="417.1" y="0" xml:space="preserve">  g  e</tspan></text><text class="cls-3" transform="translate(1311.6 1088.05) scale(.93 1)"><tspan x="0" y="0">s </tspan><tspan class="cls-4" x="60.19" y="0" xml:space="preserve"> t</tspan><tspan x="118.27" y="0" xml:space="preserve">  o  r </tspan><tspan class="cls-1" x="341.07" y="0" xml:space="preserve"> a</tspan><tspan x="417.1" y="0" xml:space="preserve">  g  e</tspan></text><g><path class="cls-2" d="M1966.54,9.07c5.89-.32,8.54,4.22,8.64,11.72,.1,7.5,.79,17.42,.59,23.86-.2,6.44-.69,29.99-.59,33.89,.1,5.49-1.77,9.08-8.15,9.71-3.24,.32-7.85,.42-12.57,.42s-9.52-.21-12.96-.32c-7.36-.32-14.24,.21-17.67,.21-8.83,0-12.47-2.64-20.12-7.29-6.87-4.22-8.15-8.87-8.44-15.21-.39-8.98,1.08-16.37,.69-33.26-.2-7.92,2.36-11.62,8.74-16.37,6.38-4.75,10.31-7.39,18.16-7.39,3.44,0,8.84-.53,13.25-.53,4.91,0,25.53,.84,30.43,.53Zm-27.29,39.07c0-2.64-.69-3.7-4.12-3.7-2.46,0-5.79,1.58-5.79,4.75,0,.53-.29,1.06-.29,2.11,0,2.11,3.93,4.65,6.18,4.65,1.57,0,3.73,0,3.73-2.53,0-1.58,.29-3.7,.29-5.28Z"/><path class="cls-2" d="M1967.03,135.78c4.91,0,8.15,5.81,8.15,12.67,0,6.33,.79,21.65,.79,26.93s-.49,25.34-.49,30.09c0,4.22-3.44,9.5-8.93,9.5-6.38,0-25.04,.53-30.43,.42-6.87-.11-29.45-.53-34.36-.42-6.87,.11-7.85-6.34-7.85-19.53,0-4.22-.49-5.81-.49-7.39,0-2.64,.98-4.01,3.44-4.22,2.46-.21,9.72-1.69,12.27-2.11,3.44-.53,13.25-3.17,17.18-3.17,1.47,0,2.36,.74,2.36,2.11,0,1.06,1.08,2.22,2.55,2.22s3.44-.11,4.91-.11c1.96,0,3.24-.53,3.24-5.28,0-4.12-.79-6.02-2.26-6.02-1.18,0-3.93-.32-6.38-.32-.88,0-2.06,1.16-2.06,2.01,0,1.16-.88,1.69-2.36,1.69-2.95,0-7.85-2.64-11.29-3.7-2.95-.95-15.71-5.49-19.14-6.34-1.18-.32-1.96-1.58-1.96-3.17,0-2.11,.49-3.17,.49-5.81,0-14.25,3.93-20.17,10.8-20.06,6.38,.11,26.51-.74,31.91-.53,4.42,.21,25.04,.53,29.94,.53Z"/><path class="cls-2" d="M1967.03,262.5c4.91,0,8.15,5.81,8.15,12.67,0,6.34,.79,21.65,.79,26.93s-.49,25.34-.49,30.09c0,4.22-3.44,9.5-8.93,9.5-6.38,0-25.04,.53-30.43,.42-6.87-.11-29.45-.53-34.36-.42-6.87,.11-7.85-6.34-7.85-19.53,0-4.22-.49-5.81-.49-7.39,0-2.64,.98-4.01,3.44-4.22,2.46-.21,9.72-1.69,12.27-2.11,3.44-.53,13.25-3.17,17.18-3.17,1.47,0,2.36,.74,2.36,2.11,0,1.06,1.08,2.22,2.55,2.22s3.44-.11,4.91-.11c1.96,0,3.24-.53,3.24-5.28,0-4.12-.79-6.02-2.26-6.02-1.18,0-3.93-.32-6.38-.32-.88,0-2.06,1.16-2.06,2.01,0,1.16-.88,1.69-2.36,1.69-2.95,0-7.85-2.64-11.29-3.7-2.95-.95-15.71-5.49-19.14-6.34-1.18-.32-1.96-1.58-1.96-3.17,0-2.11,.49-3.17,.49-5.81,0-14.25,3.93-20.17,10.8-20.06,6.38,.11,26.51-.74,31.91-.53,4.42,.21,25.04,.53,29.94,.53Z"/></g><g><path class="cls-2" d="M1963.73,399.5c5.89-.32,8.54,4.22,8.64,11.72,.1,7.5,.79,17.42,.59,23.86-.2,6.44-.69,29.99-.59,33.89,.1,5.49-1.77,9.08-8.15,9.71-3.24,.32-7.85,.42-12.57,.42s-9.52-.21-12.96-.32c-7.36-.32-14.24,.21-17.67,.21-8.83,0-12.47-2.64-20.12-7.29-6.87-4.22-8.15-8.87-8.44-15.21-.39-8.98,1.08-16.37,.69-33.26-.2-7.92,2.36-11.62,8.74-16.37,6.38-4.75,10.31-7.39,18.16-7.39,3.44,0,8.84-.53,13.25-.53,4.91,0,25.53,.84,30.43,.53Zm-27.29,39.07c0-2.64-.69-3.7-4.12-3.7-2.46,0-5.79,1.58-5.79,4.75,0,.53-.29,1.06-.29,2.11,0,2.11,3.93,4.65,6.18,4.65,1.57,0,3.73,0,3.73-2.53,0-1.58,.29-3.7,.29-5.28Z"/><path class="cls-2" d="M1964.22,526.21c4.91,0,8.15,5.81,8.15,12.67,0,6.33,.79,21.65,.79,26.93s-.49,25.34-.49,30.09c0,4.22-3.44,9.5-8.93,9.5-6.38,0-25.04,.53-30.43,.42-6.87-.11-29.45-.53-34.36-.42-6.87,.11-7.85-6.34-7.85-19.53,0-4.22-.49-5.81-.49-7.39,0-2.64,.98-4.01,3.44-4.22,2.46-.21,9.72-1.69,12.27-2.11,3.44-.53,13.25-3.17,17.18-3.17,1.47,0,2.36,.74,2.36,2.11,0,1.06,1.08,2.22,2.55,2.22s3.44-.11,4.91-.11c1.96,0,3.24-.53,3.24-5.28,0-4.12-.79-6.02-2.26-6.02-1.18,0-3.93-.32-6.38-.32-.88,0-2.06,1.16-2.06,2.01,0,1.16-.88,1.69-2.36,1.69-2.95,0-7.85-2.64-11.29-3.7-2.95-.95-15.71-5.49-19.14-6.34-1.18-.32-1.96-1.58-1.96-3.17,0-2.11,.49-3.17,.49-5.81,0-14.25,3.93-20.17,10.8-20.06,6.38,.11,26.51-.74,31.91-.53,4.42,.21,25.04,.53,29.94,.53Z"/><path class="cls-2" d="M1964.22,652.93c4.91,0,8.15,5.81,8.15,12.67,0,6.34,.79,21.65,.79,26.93s-.49,25.34-.49,30.09c0,4.22-3.44,9.5-8.93,9.5-6.38,0-25.04,.53-30.43,.42-6.87-.11-29.45-.53-34.36-.42-6.87,.11-7.85-6.34-7.85-19.53,0-4.22-.49-5.81-.49-7.39,0-2.64,.98-4.01,3.44-4.22,2.46-.21,9.72-1.69,12.27-2.11,3.44-.53,13.25-3.17,17.18-3.17,1.47,0,2.36,.74,2.36,2.11,0,1.06,1.08,2.22,2.55,2.22s3.44-.11,4.91-.11c1.96,0,3.24-.53,3.24-5.28,0-4.12-.79-6.02-2.26-6.02-1.18,0-3.93-.32-6.38-.32-.88,0-2.06,1.16-2.06,2.01,0,1.16-.88,1.69-2.36,1.69-2.95,0-7.85-2.64-11.29-3.7-2.95-.95-15.71-5.49-19.14-6.34-1.18-.32-1.96-1.58-1.96-3.17,0-2.11,.49-3.17,.49-5.81,0-14.25,3.93-20.17,10.8-20.06,6.38,.11,26.51-.74,31.91-.53,4.42,.21,25.04,.53,29.94,.53Z"/></g><g><path class="cls-2" d="M1957.98,755.19c5.89-.32,8.54,4.22,8.64,11.72,.1,7.5,.79,17.42,.59,23.86-.2,6.44-.69,29.99-.59,33.89,.1,5.49-1.77,9.08-8.15,9.71-3.24,.32-7.85,.42-12.57,.42s-9.52-.21-12.96-.32c-7.36-.32-14.24,.21-17.67,.21-8.83,0-12.47-2.64-20.12-7.29-6.87-4.22-8.15-8.87-8.44-15.21-.39-8.97,1.08-16.37,.69-33.26-.2-7.92,2.36-11.62,8.74-16.37,6.38-4.75,10.31-7.39,18.16-7.39,3.44,0,8.84-.53,13.25-.53,4.91,0,25.53,.84,30.43,.53Zm-27.29,39.07c0-2.64-.69-3.7-4.12-3.7-2.46,0-5.79,1.58-5.79,4.75,0,.53-.29,1.06-.29,2.11,0,2.11,3.93,4.65,6.18,4.65,1.57,0,3.73,0,3.73-2.53,0-1.58,.29-3.7,.29-5.28Z"/><path class="cls-2" d="M1958.47,881.9c4.91,0,8.15,5.81,8.15,12.67,0,6.33,.79,21.65,.79,26.93s-.49,25.34-.49,30.09c0,4.22-3.44,9.5-8.93,9.5-6.38,0-25.04,.53-30.43,.42-6.87-.11-29.45-.53-34.36-.42-6.87,.11-7.85-6.34-7.85-19.53,0-4.22-.49-5.81-.49-7.39,0-2.64,.98-4.01,3.44-4.22,2.46-.21,9.72-1.69,12.27-2.11,3.44-.53,13.25-3.17,17.18-3.17,1.47,0,2.36,.74,2.36,2.11,0,1.06,1.08,2.22,2.55,2.22s3.44-.11,4.91-.11c1.96,0,3.24-.53,3.24-5.28,0-4.12-.79-6.02-2.26-6.02-1.18,0-3.93-.32-6.38-.32-.88,0-2.06,1.16-2.06,2.01,0,1.16-.88,1.69-2.36,1.69-2.95,0-7.85-2.64-11.29-3.7-2.95-.95-15.71-5.49-19.14-6.34-1.18-.32-1.96-1.58-1.96-3.17,0-2.11,.49-3.17,.49-5.81,0-14.25,3.93-20.17,10.8-20.06,6.38,.11,26.51-.74,31.91-.53,4.42,.21,25.04,.53,29.94,.53Z"/><path class="cls-2" d="M1958.47,1008.61c4.91,0,8.15,5.81,8.15,12.67,0,6.34,.79,21.65,.79,26.93s-.49,25.34-.49,30.09c0,4.22-3.44,9.5-8.93,9.5-6.38,0-25.04,.53-30.43,.42-6.87-.11-29.45-.53-34.36-.42-6.87,.11-7.85-6.33-7.85-19.53,0-4.22-.49-5.81-.49-7.39,0-2.64,.98-4.01,3.44-4.22,2.46-.21,9.72-1.69,12.27-2.11,3.44-.53,13.25-3.17,17.18-3.17,1.47,0,2.36,.74,2.36,2.11,0,1.06,1.08,2.22,2.55,2.22s3.44-.11,4.91-.11c1.96,0,3.24-.53,3.24-5.28,0-4.12-.79-6.02-2.26-6.02-1.18,0-3.93-.32-6.38-.32-.88,0-2.06,1.16-2.06,2.01,0,1.16-.88,1.69-2.36,1.69-2.95,0-7.85-2.64-11.29-3.7-2.95-.95-15.71-5.49-19.14-6.33-1.18-.32-1.96-1.58-1.96-3.17,0-2.11,.49-3.17,.49-5.81,0-14.25,3.93-20.17,10.8-20.06,6.38,.11,26.51-.74,31.91-.53,4.42,.21,25.04,.53,29.94,.53Z"/></g></g></svg>