<?xml version="1.0" encoding="UTF-8"?><svg id="Layer_2" xmlns="http://www.w3.org/2000/svg" viewBox="0 0 261 788"><defs><style>.cls-1{letter-spacing:0em;}.cls-1,.cls-2,.cls-3,.cls-4,.cls-5,.cls-6,.cls-7{font-family:KozGoPr6N-Regular-83pv-RKSJ-H, 'Kozuka Gothic Pr6N';}.cls-8{letter-spacing:-.02em;}.cls-9{letter-spacing:-.08em;}.cls-10{letter-spacing:-.02em;}.cls-11{letter-spacing:-.13em;}.cls-12{letter-spacing:-.03em;}.cls-2{letter-spacing:-.09em;}.cls-13{letter-spacing:-.14em;}.cls-14{font-size:35px;}.cls-4{letter-spacing:-.04em;}.cls-5{letter-spacing:-.04em;}.cls-15{letter-spacing:-.16em;}.cls-16{letter-spacing:-.48em;}.cls-17{letter-spacing:-.48em;}.cls-18{letter-spacing:-.11em;}.cls-6{letter-spacing:-.16em;}.cls-19{letter-spacing:-.22em;}.cls-20{letter-spacing:-.05em;}.cls-21{letter-spacing:-.1em;}.cls-22{letter-spacing:-.05em;}.cls-23,.cls-7{letter-spacing:-.1em;}.cls-24{letter-spacing:-.1em;}.cls-25{font-family:DOSGothic, DOSGothic;}.cls-26{letter-spacing:-.15em;}.cls-27{fill:#ffff17;stroke:#4169a5;stroke-miterlimit:10;stroke-width:3px;}.cls-28{letter-spacing:-.07em;}.cls-29{letter-spacing:-.07em;}</style></defs><g id="_레이어_1"><rect class="cls-27" x="1.5" y="1.5" width="258" height="785" rx="12" ry="12"/><text class="cls-14" transform="translate(96.31 65.85) scale(.93 1)"><tspan class="cls-25"><tspan x="0" y="0">日常</tspan></tspan><tspan class="cls-3"><tspan class="cls-12" x="-8.4" y="57">ああ</tspan><tspan class="cls-17" x="59.5" y="57">、</tspan></tspan><tspan class="cls-25" x="-32.73" y="114">発見</tspan><tspan class="cls-2" x="37.27" y="114">す</tspan><tspan class="cls-4" x="69.13" y="114">る</tspan><tspan class="cls-25"><tspan x="0" y="171">危険</tspan></tspan><tspan class="cls-3"><tspan class="cls-29" x="-63.35" y="228">ド</tspan><tspan class="cls-23" x="-30.8" y="228">ラ</tspan><tspan class="cls-13" x=".7" y="228">ン</tspan><tspan class="cls-29" x="30.8" y="228">ド</tspan><tspan class="cls-23" x="63.35" y="228">ラ</tspan><tspan class="cls-8" x="94.85" y="228">ン</tspan></tspan><tspan class="cls-25" x="-29.05" y="285">集</tspan><tspan class="cls-6" x="4.55" y="285">ま</tspan><tspan class="cls-7" x="33.95" y="285">っ</tspan><tspan class="cls-5" x="65.45" y="285">て</tspan><tspan class="cls-3"><tspan class="cls-20" x="-45.85" y="342">ポ</tspan><tspan class="cls-13" x="-12.6" y="342">ン</tspan><tspan class="cls-28" x="17.5" y="342">ド</tspan><tspan class="cls-21" x="50.05" y="342">ラ</tspan><tspan class="cls-8" x="81.55" y="342">ン</tspan></tspan><tspan class="cls-3"><tspan class="cls-26" x="-60.9" y="399">フ</tspan><tspan class="cls-24" x="-31.15" y="399">ォ</tspan><tspan class="cls-11" x=".35" y="399">ー</tspan><tspan class="cls-29" x="30.8" y="399">ド</tspan><tspan class="cls-23" x="63.35" y="399">ラ</tspan><tspan class="cls-8" x="94.85" y="399">ン</tspan></tspan><tspan class="cls-25"><tspan x="26.25" y="456">+</tspan></tspan><tspan class="cls-3"><tspan class="cls-9" x="-59.85" y="513">ナ</tspan><tspan class="cls-13" x="-27.65" y="513">プ</tspan><tspan class="cls-21" x="2.45" y="513">ト</tspan><tspan class="cls-9" x="33.95" y="513">ナ</tspan><tspan class="cls-13" x="66.15" y="513">プ</tspan><tspan class="cls-29" x="96.25" y="513">ト</tspan></tspan><tspan class="cls-25" x=".17" y="570">試</tspan><tspan class="cls-1" x="35.17" y="570">す</tspan><tspan class="cls-3"><tspan class="cls-10" x="-59.15" y="627">プ</tspan><tspan class="cls-22" x="-24.85" y="627">ロ</tspan><tspan class="cls-26" x="8.4" y="627">ジ</tspan><tspan class="cls-15" x="38.15" y="627">ェ</tspan><tspan class="cls-19" x="67.55" y="627">ク</tspan><tspan class="cls-28" x="94.85" y="627">ト</tspan></tspan><tspan class="cls-3"><tspan x="-7.7" y="684">で</tspan><tspan class="cls-18" x="27.3" y="684">す</tspan><tspan class="cls-16" x="58.45" y="684">。</tspan></tspan></text></g></svg>