<?xml version="1.0" encoding="UTF-8"?><svg id="Layer_2" xmlns="http://www.w3.org/2000/svg" viewBox="0 0 261 788"><defs><style>.cls-1{letter-spacing:0em;}.cls-2,.cls-3{letter-spacing:0em;}.cls-4,.cls-5,.cls-6,.cls-7,.cls-8,.cls-9,.cls-10,.cls-11,.cls-12,.cls-13,.cls-14,.cls-15{font-family:MyriadPro-Regular, 'Myriad Pro';}.cls-4,.cls-16{letter-spacing:0em;}.cls-5{letter-spacing:0em;}.cls-17{letter-spacing:0em;}.cls-17,.cls-3,.cls-18{font-family:DOSGothic, DOSGothic;}.cls-19{letter-spacing:-.05em;}.cls-20,.cls-15{letter-spacing:-.01em;}.cls-7,.cls-21{letter-spacing:0em;}.cls-8{letter-spacing:0em;}.cls-22{font-size:35px;}.cls-9{letter-spacing:0em;}.cls-10{letter-spacing:-.02em;}.cls-11{letter-spacing:0em;}.cls-12{letter-spacing:0em;}.cls-23{letter-spacing:-.01em;}.cls-24{letter-spacing:0em;}.cls-25{letter-spacing:0em;}.cls-26{letter-spacing:0em;}.cls-13{letter-spacing:-.02em;}.cls-27{letter-spacing:0em;}.cls-28{fill:#ffff17;stroke:#4169a5;stroke-miterlimit:10;stroke-width:3px;}.cls-29{letter-spacing:.01em;}.cls-14{letter-spacing:0em;}</style></defs><g id="_레이어_1"><rect class="cls-28" x="1.5" y="1.5" width="258" height="785" rx="12" ry="12"/><text class="cls-22" transform="translate(55.91 65.85) scale(.93 1)"><tspan class="cls-10" x="0" y="0">κ</tspan><tspan class="cls-6" x="16.73" y="0">άθε</tspan><tspan class="cls-3" x="70.1" y="0"> </tspan><tspan class="cls-6" x="87.6" y="0">μ</tspan><tspan class="cls-7" x="106.96" y="0">έ</tspan><tspan class="cls-6" x="122.22" y="0">ρα</tspan><tspan class="cls-6"><tspan class="cls-1" x="32.22" y="57">ζ</tspan><tspan class="cls-2" x="46.43" y="57">ω</tspan><tspan class="cls-21" x="70.72" y="57">η</tspan><tspan x="90" y="57">ρά</tspan></tspan><tspan class="cls-6" x="-47.44" y="114">να</tspan><tspan class="cls-3" x="-11.74" y="114"> </tspan><tspan class="cls-6" x="5.76" y="114">ανα</tspan><tspan class="cls-10" x="60.74" y="114">κ</tspan><tspan class="cls-14" x="77.47" y="114">α</tspan><tspan class="cls-11" x="97.04" y="114">λ</tspan><tspan class="cls-6" x="113.21" y="114">ύ</tspan><tspan class="cls-12" x="131.55" y="114">ψ</tspan><tspan class="cls-6" x="154.68" y="114">ουν</tspan><tspan class="cls-6"><tspan class="cls-19" x="59.88" y="171">Γ</tspan><tspan x="73.78" y="171">ια</tspan></tspan><tspan class="cls-6"><tspan x="24.9" y="228">Ν</tspan><tspan class="cls-20" x="47.93" y="228">τ</tspan><tspan class="cls-24" x="61.97" y="228">ό</tspan><tspan x="80.9" y="228">ραν</tspan></tspan><tspan class="cls-6"><tspan x="24.76" y="285">μ</tspan><tspan class="cls-29" x="44.12" y="285">α</tspan><tspan class="cls-25" x="63.89" y="285">ζ</tspan><tspan x="78.42" y="285">εύω</tspan></tspan><tspan class="cls-5" x="-48.12" y="342">ε</tspan><tspan class="cls-6" x="-32.83" y="342">ίδος</tspan><tspan class="cls-17" x="28.35" y="342"> </tspan><tspan class="cls-5" x="45.85" y="342">ζα</tspan><tspan class="cls-13" x="79.24" y="342">χ</tspan><tspan class="cls-8" x="94.5" y="342">α</tspan><tspan class="cls-12" x="113.54" y="342">ρ</tspan><tspan class="cls-6" x="133.45" y="342">ω</tspan><tspan class="cls-15" x="157.74" y="342">τ</tspan><tspan class="cls-6" x="171.78" y="342">ού</tspan><tspan class="cls-6"><tspan class="cls-26" x="36.54" y="399">π</tspan><tspan class="cls-2" x="56.28" y="399">τυ</tspan><tspan class="cls-16" x="89.07" y="399">χ</tspan><tspan x="105.24" y="399">ή</tspan></tspan><tspan class="cls-18"><tspan x="71.85" y="456">+</tspan></tspan><tspan class="cls-18"><tspan x="-6.9" y="513">Naputnaput</tspan></tspan><tspan class="cls-6"><tspan class="cls-23" x="1.35" y="570">π</tspan><tspan x="20.28" y="570">ρο</tspan><tspan class="cls-29" x="59.2" y="570">σ</tspan><tspan class="cls-27" x="79.08" y="570">π</tspan><tspan x="98.33" y="570">αθ</tspan><tspan class="cls-1" x="136.31" y="570">ε</tspan><tspan class="cls-2" x="151.6" y="570">ί</tspan></tspan><tspan class="cls-6"><tspan class="cls-21" x="45.53" y="627">έ</tspan><tspan class="cls-24" x="60.79" y="627">ρ</tspan><tspan x="80.22" y="627">γο</tspan></tspan><tspan class="cls-6" x="-10.36" y="684">δ</tspan><tspan class="cls-12" x="8.75" y="684">ε</tspan><tspan class="cls-6" x="24.36" y="684">ν</tspan><tspan class="cls-18" x="40.77" y="684"> </tspan><tspan class="cls-9" x="58.27" y="684">β</tspan><tspan class="cls-4" x="77.98" y="684">λ</tspan><tspan class="cls-14" x="94.67" y="684">έ</tspan><tspan class="cls-6" x="110.35" y="684">πω</tspan><tspan class="cls-17" x="154.07" y="684">.</tspan></text></g></svg>