<?xml version="1.0" encoding="UTF-8"?><svg id="Layer_2" xmlns="http://www.w3.org/2000/svg" viewBox="0 0 644 644"><defs><style>.cls-1{fill:#82e821;}.cls-2{stroke:#ffff17;stroke-miterlimit:10;stroke-width:18px;}</style></defs><g id="_레이어_1"><circle class="cls-2" cx="322" cy="322" r="313"/><circle class="cls-2" cx="321.5" cy="320.5" r="264.5"/><path class="cls-1" d="M321.75,79.82c-132.93,0-240.8,107.88-240.8,240.8s107.88,240.8,240.8,240.8,240.8-107.88,240.8-240.8-107.88-240.8-240.8-240.8h0Zm0,11.2c63.7,0,121.36,25.9,162.93,67.73-1.96-.36-4.06-.52-6.12-.52-18.49,0-33.6,15.11-33.6,33.6,0,7.16,2.28,13.79,6.12,19.25l-5.77,4.38c-22.45-26.35-53.05-45.57-88.03-53.38-.64-.11-1.29-.11-1.92,0-.93-23.86-20.72-43.05-44.8-43.05s-44.8,20.12-44.8,44.8c0,1.6,0,3.17,.18,4.73-.41,.01-.82,.07-1.23,.18-.48,.05-.95,.17-1.4,.35-47.79,18.42-82.94,68.7-96.95,117.95-.46-.02-.94,0-1.4,0-18.49,0-33.6,15.11-33.6,33.6s15.11,33.6,33.6,33.6c.4,0,.82,.01,1.23,0,17.71,70.46,79.43,128.8,155.57,128.8,89.62,0,162.4-72.77,162.4-162.4,0-36.12-11.88-69.44-31.85-96.43l6.82-5.07c5.5,3.93,12.18,6.3,19.43,6.3,18.38,0,33.41-14.92,33.6-33.25,24.73,36.62,39.2,80.87,39.2,128.45,0,114.49-83.65,209.22-193.2,226.62,11.57-5.32,19.6-17.11,19.6-30.62,0-18.49-15.11-33.6-33.6-33.6s-33.6,15.11-33.6,33.6c0,16.18,11.5,29.75,26.77,32.9-5.14,.34-10.35,.7-15.57,.7-126.87,0-229.6-102.73-229.6-229.6S194.88,91.03,321.75,91.03h0Zm-11.2,39.2c18.62,0,33.6,14.98,33.6,33.6s-14.98,33.6-33.6,33.6-33.6-14.98-33.6-33.6,14.98-33.6,33.6-33.6Zm168,39.2c12.44,0,22.4,9.96,22.4,22.4s-9.96,22.4-22.4,22.4-22.4-9.96-22.4-22.4,9.96-22.4,22.4-22.4h0Zm-124.07,3.5c.11,.06,.23,.12,.35,.18,32.33,7.21,60.69,24.75,81.55,49l-54.07,40.42c-15.3-15.94-36.77-25.9-60.55-25.9-46.32,0-84,37.68-84,84s37.68,84,84,84,84-37.68,84-84c0-18.48-6.12-35.46-16.27-49.35l53.9-40.25c18.52,25.07,29.57,56,29.57,89.6,0,83.57-67.63,151.2-151.2,151.2-70.23,0-127.84-54.21-144.55-119.88,12.5-4.9,21.35-17.13,21.35-31.32s-8.85-26.42-21.35-31.32c13.38-46.09,47.32-93.23,90.13-109.73,.43-.12,.84-.3,1.23-.52,6.27,17.18,22.69,29.57,42,29.57,21.54,0,39.68-15.4,43.93-35.7h0Zm-32.73,74.9c20.23,0,38.45,8.26,51.62,21.53l-32.2,23.97c-5.5-3.93-12.18-6.3-19.43-6.3-18.49,0-33.6,15.11-33.6,33.6s15.11,33.6,33.6,33.6,33.6-15.11,33.6-33.6c0-7.16-2.28-13.79-6.12-19.25l31.32-23.45c8.71,12,14,26.7,14,42.7,0,40.27-32.53,72.8-72.8,72.8s-72.8-32.53-72.8-72.8,32.53-72.8,72.8-72.8h0Zm-156.8,50.4c12.44,0,22.4,9.96,22.4,22.4s-9.96,22.4-22.4,22.4-22.4-9.96-22.4-22.4,9.96-22.4,22.4-22.4h0Zm156.8,0c12.44,0,22.4,9.96,22.4,22.4s-9.96,22.4-22.4,22.4-22.4-9.96-22.4-22.4,9.96-22.4,22.4-22.4Zm22.4,196c12.44,0,22.4,9.96,22.4,22.4s-9.96,22.4-22.4,22.4-22.4-9.96-22.4-22.4,9.96-22.4,22.4-22.4Z"/></g></svg>