<?xml version="1.0" encoding="UTF-8"?><svg id="Layer_2" xmlns="http://www.w3.org/2000/svg" viewBox="0 0 644 644"><defs><style>.cls-1{fill:#e07127;}.cls-2{stroke:#ffff17;stroke-miterlimit:10;stroke-width:18px;}</style></defs><g id="_레이어_1"><circle class="cls-2" cx="322" cy="322" r="313"/><circle class="cls-2" cx="321.5" cy="320.5" r="264.5"/><path class="cls-1" d="M245.85,549.15c126.16,41.9,262.53-26.49,304.42-152.63,41.89-126.15-26.49-262.53-152.63-304.42-126.15-41.89-262.53,26.49-304.42,152.63-41.89,126.15,26.49,262.53,152.63,304.42h0Zm3.53-10.63c-60.46-20.08-107.01-62.83-133.28-115.63,1.75,.96,3.69,1.78,5.65,2.43,17.55,5.83,36.65-3.75,42.48-21.3,2.26-6.8,2.18-13.8,.25-20.2l6.86-2.33c13,32.08,35.98,59.97,66.72,78.4,.57,.3,1.19,.51,1.82,.61-6.63,22.94,6.09,47.39,28.95,54.98,23.42,7.78,48.86-4.98,56.64-28.4,.5-1.52,.99-3.01,1.32-4.54,.4,.12,.8,.19,1.22,.22,.47,.1,.96,.14,1.44,.11,51.16-2.42,100.36-39.05,129.18-81.38,.43,.16,.89,.3,1.33,.44,17.55,5.83,36.65-3.75,42.48-21.3,5.83-17.55-3.75-36.65-21.3-42.48-.38-.13-.78-.27-1.16-.39,5.4-72.45-34.79-147.27-107.05-171.27-85.06-28.25-177.06,17.88-205.31,102.94-11.38,34.28-10.61,69.64-.17,101.55l-8.08,2.66c-3.98-5.47-9.57-9.82-16.45-12.1-17.44-5.79-36.41,3.63-42.37,20.97-11.93-42.55-11.72-89.11,3.28-134.26,36.08-108.65,145.33-172.19,254.78-154.18-12.66,1.4-23.99,10.06-28.26,22.89-5.83,17.55,3.75,36.65,21.3,42.48,17.55,5.83,36.65-3.75,42.48-21.3,5.1-15.36-1.53-31.86-15.04-39.66,4.99,1.29,10.04,2.59,15,4.24,120.4,39.99,185.52,169.86,145.53,290.26-39.99,120.4-169.86,185.52-290.26,145.53h0Zm22.98-33.67c-17.67-5.87-27.17-24.8-21.3-42.47,5.87-17.68,24.8-27.17,42.48-21.3,17.68,5.87,27.17,24.8,21.3,42.48-5.87,17.67-24.8,27.17-42.48,21.3Zm-147.08-90.15c-11.8-3.92-18.12-16.51-14.2-28.32,3.92-11.8,16.51-18.12,28.32-14.2,11.8,3.92,18.12,16.52,14.2,28.32-3.92,11.8-16.52,18.12-28.32,14.2h0Zm118.85,35.78c-.09-.1-.18-.19-.27-.28-28.41-17.03-49.79-42.62-61.95-72.21l64.06-21.32c9.5,19.95,26.73,36.17,49.3,43.66,43.96,14.6,91.59-9.28,106.19-53.24,14.6-43.96-9.28-91.59-53.24-106.19-43.96-14.6-91.59,9.28-106.19,53.24-5.83,17.54-5.37,35.58-.11,51.97l-63.84,21.21c-9.67-29.63-10.42-62.47,.17-94.36,26.34-79.31,111.84-122.18,191.15-95.84,66.65,22.13,104.24,91.74,99.4,159.33-13.41,.71-25.66,9.53-30.14,23s.07,27.86,10.39,36.46c-27.22,39.53-74.29,73.56-120.12,75.73-.45-.02-.89,.02-1.33,.11-.54-18.28-12.21-35.22-30.54-41.3-20.44-6.79-42.51,2.11-52.94,20.04h0Zm54.66-60.77c-19.2-6.38-33.89-19.96-42.21-36.7l38.11-12.6c3.98,5.47,9.57,9.82,16.45,12.1,17.55,5.83,36.65-3.75,42.48-21.3,5.83-17.55-3.75-36.65-21.3-42.48-17.55-5.83-36.65,3.75-42.48,21.3-2.26,6.79-2.18,13.8-.25,20.2l-37.12,12.38c-4.48-14.13-4.87-29.75,.17-44.94,12.69-38.22,53.81-58.84,92.04-46.15s58.84,53.81,46.15,92.04c-12.69,38.22-53.81,58.84-92.04,46.15h0Zm164.69,1.59c-11.8-3.92-18.12-16.51-14.2-28.32s16.52-18.12,28.32-14.2c11.8,3.92,18.12,16.51,14.2,28.32-3.92,11.8-16.51,18.12-28.32,14.2h0Zm-148.81-49.42c-11.8-3.92-18.12-16.51-14.2-28.32s16.51-18.12,28.32-14.2c11.8,3.92,18.12,16.51,14.2,28.32-3.92,11.8-16.51,18.12-28.32,14.2Zm40.52-193.07c-11.8-3.92-18.12-16.51-14.2-28.32,3.92-11.8,16.52-18.12,28.32-14.2,11.8,3.92,18.12,16.51,14.2,28.32-3.92,11.8-16.51,18.12-28.32,14.2Z"/></g></svg>